<svg fill="currentColor" version="1.1" id="Layer_1" xmlns="http://www.w3.org/2000/svg" xmlns:xlink="http://www.w3.org/1999/xlink" viewBox="0 0 206.918 206.918" xml:space="preserve">
			<path d="M25.864,97.918c2.04,0,3.695-1.653,3.695-3.695c0-19.355,10.774-35.102,24.017-35.102c2.04,0,3.695-1.653,3.695-3.695
				s-1.654-3.695-3.695-3.695c-17.318,0-31.407,19.063-31.407,42.492C22.169,96.264,23.824,97.918,25.864,97.918z"/>
			<path d="M125.627,97.918c2.04,0,3.695-1.653,3.695-3.695c0-19.355,10.774-35.102,24.017-35.102c2.04,0,3.695-1.653,3.695-3.695
				s-1.655-3.695-3.695-3.695c-17.318,0-31.407,19.063-31.407,42.492C121.932,96.264,123.587,97.918,125.627,97.918z"/>
			<path d="M203.22,121.934h-9.475c3.773-8.448,5.78-17.899,5.78-27.712c0-31.58-20.719-57.271-46.186-57.271
				c-25.467,0-46.186,25.691-46.186,57.271c0,9.813,2.006,19.264,5.78,27.712h-18.95c3.773-8.448,5.78-17.899,5.78-27.712
				c0-31.58-20.719-57.271-46.186-57.271C28.11,36.95,7.39,62.642,7.39,94.221c0,9.813,2.006,19.264,5.78,27.712H3.695
				c-2.04,0-3.695,1.653-3.695,3.695v22.169c0,2.042,1.655,3.695,3.695,3.695h11.751l3.101,15.505
				c0.345,1.725,1.862,2.97,3.623,2.97h62.814c1.761,0,3.278-1.245,3.623-2.97l3.101-15.505h23.502l3.101,15.505
				c0.345,1.725,1.862,2.97,3.623,2.97h62.814c1.761,0,3.278-1.245,3.623-2.97l3.101-15.505h11.751c2.04,0,3.695-1.653,3.695-3.695
				v-22.169C206.915,123.587,205.261,121.934,203.22,121.934z M153.339,44.34c21.392,0,38.797,22.375,38.797,49.881
				c0,9.963-2.261,19.496-6.554,27.712h-64.484c-4.295-8.216-6.556-17.749-6.556-27.712C114.542,66.715,131.947,44.34,153.339,44.34
				z M53.577,44.34c21.392,0,38.796,22.375,38.796,49.881c0,9.963-2.261,19.496-6.554,27.712H21.334
				c-4.294-8.216-6.554-17.749-6.554-27.712C14.78,66.715,32.185,44.34,53.577,44.34z M81.954,162.577H25.199l-2.217-11.085h61.19
				L81.954,162.577z M181.717,162.577h-56.755l-2.217-11.085h61.19L181.717,162.577z M199.525,144.103H188.44h-70.203H88.678H18.475
				H7.39v-14.78h11.758h68.857h30.905h68.857h11.758V144.103z"/>
</svg>